# xmcd
# 
# Track frame offsets:
#	150
#	1829
#	20041
#	58749
#	80356
#	126544
#	153554
#	194604
#	218739
#	253211
#
# Disc length: 4001 seconds
#
# Revision: 1
# Processed by: cddbd v1.4PL0 Copyright (c) Steve Scherf et al.
# Submitted via: Audio-CD-Archiv 2.10.441
#
DISCID=8e0f9f0a
DTITLE=Luther Allison - Live in Chicago CD1
DYEAR=1900
DGENRE=blues
TTITLE0=Intro
TTITLE1=Soul Fixin' Man
TTITLE2=Cherry Red Wine
TTITLE3=Move From the Hood
TTITLE4=Bad Love
TTITLE5=Put Your Money Where Your Mouth Is
TTITLE6=Big City
TTITLE7=Give Me Back My Wig
TTITLE8=It Hurts Me Too
TTITLE9=Medley: Gambler's Blues/Sweet Little Angel
EXTD=
EXTT0=
EXTT1=
EXTT2=
EXTT3=
EXTT4=
EXTT5=
EXTT6=
EXTT7=
EXTT8=
EXTT9=
PLAYORDER=
